<svg xmlns="http://www.w3.org/2000/svg" viewBox="10 10 809 500">
  <rect stroke="green" fill="#ff0000" x="200" y="100" width="100" height="200" />
  <line stroke="orange" stroke-width="5" x1="100" y1="250" x2="709" y2="250" />
  <circle fill="rgb(0, 100, 50)" cx="618" cy="314" r="100" />
  <ellipse opacity=".5" fill="dodgerblue" cx="350" cy="400" rx="300" ry="50" />
  <polyline stroke="gray" fill="none" points="700,50 270,50 500,200 100,100" />
  <circle cx="80" cy="100" r="100" fill="none" stroke="red" />
  <circle cx="80" cy="100" r="50" />
  <g stroke="rebeccapurple" stroke-width="2" fill="gold" opacity=".618">
    <rect x="25" y="25" rx="10" ry="10" width="50" height="50" />
    <rect x="125" y="25" rx="10" ry="10" width="50" height="50" fill="lightskyblue" />
    <rect x="225" y="25" rx="10" ry="10" width="50" height="50" />
    <rect x="325" y="25" rx="10" ry="10" width="50" height="50" stroke="transparent" />
    <rect x="325" y="125" rx="10" ry="10" width="50" height="50" />
  </g>
  <path d="M 10 10 h 80 v 80 h -80 Z" fill="none" stroke="red" />
  <path d="M 10 80 Q 95 10 180 80" stroke="red" fill="transparent" />
  <path d="M 10 10 C 20 20 40 20 50 10" stroke="black" fill="transparent" />
  <path d="M 70 10 C 70 20 110 20 110 10" stroke="black" fill="transparent" />
  <path d="M 130 10 C 120 20 180 20 170 10" stroke="black" fill="transparent" />
  <path d="M 10 60 C 20 80 40 80 50 60" stroke="black" fill="transparent" />
  <path d="M 70 60 C 70 80 110 80 110 60" stroke="black" fill="transparent" />
  <path d="M 130 60 C 120 80 180 80 170 60" stroke="black" fill="transparent" />
  <path d="M 10 110 C 20 140 40 140 50 110" stroke="black" fill="transparent" />
  <path d="M 70 110 C 70 140 110 140 110 110" stroke="black" fill="transparent" />
  <path d="M 130 110 C 120 140 180 140 170 110" stroke="black" fill="transparent" />
  <path d="M 10 80 C 40 10, 65 10, 95 80 S 150 150, 180 80" stroke="red" fill="transparent" />
  <g>
    <path d="M54,414.8l-0.7-1.1c0.4-0.3,0.8-0.7,1-1c0.2-0.4,0.3-0.8,0.2-1.3c0-0.5-0.2-1.1-0.5-1.6
      c-0.3-0.5-0.6-0.9-0.9-1.1c-0.3-0.3-0.7-0.5-1-0.5c-0.3,0-0.7,0-1,0.2c-0.3,0.2-0.5,0.4-0.6,0.7c-0.1,0.3-0.2,0.7-0.1,1.2
      c0,0.3,0.2,1,0.4,1.9c0.3,1,0.4,1.7,0.4,2.1c0,0.6-0.1,1.1-0.3,1.5c-0.2,0.4-0.6,0.7-1,1c-0.5,0.3-1,0.4-1.6,0.3
      s-1.1-0.3-1.6-0.7c-0.5-0.4-0.9-0.9-1.3-1.6c-0.4-0.7-0.6-1.4-0.7-2c-0.1-0.7,0-1.2,0.3-1.8c0.3-0.5,0.7-0.9,1.2-1.3l0.7,1.2
      c-0.6,0.4-0.9,0.8-1,1.4c-0.1,0.5,0,1.2,0.4,1.9c0.4,0.8,0.8,1.2,1.3,1.4c0.5,0.2,0.9,0.2,1.3,0c0.3-0.2,0.6-0.5,0.6-0.8
      c0.1-0.4,0-1.1-0.3-2.2c-0.3-1.1-0.5-1.9-0.5-2.4c0-0.7,0.1-1.3,0.3-1.7c0.2-0.5,0.6-0.8,1.1-1.1c0.5-0.3,1.1-0.4,1.7-0.3
      s1.2,0.3,1.7,0.7c0.5,0.4,1,0.9,1.4,1.6c0.5,0.9,0.7,1.6,0.8,2.4c0.1,0.7-0.1,1.4-0.4,2S54.6,414.4,54,414.8z" />
    <path d="M47.5,406.4c-1.7,0.6-3.2,0.6-4.4,0.1c-1.3-0.6-2.2-1.5-2.7-3c-0.3-0.9-0.4-1.9-0.2-2.8
      c0.2-0.9,0.6-1.7,1.2-2.4c0.7-0.7,1.5-1.2,2.5-1.6c1-0.4,2-0.5,3-0.4c1,0.1,1.8,0.5,2.5,1.1c0.7,0.6,1.2,1.4,1.5,2.2
      c0.3,1,0.4,1.9,0.2,2.8c-0.2,0.9-0.6,1.7-1.3,2.4C49.2,405.5,48.4,406,47.5,406.4z M47,405c1.2-0.4,2.1-1.1,2.5-2
      c0.5-0.9,0.5-1.9,0.2-2.8c-0.4-1-1-1.7-2-2.1s-2.1-0.4-3.4,0.1c-0.8,0.3-1.5,0.7-2,1.2c-0.5,0.5-0.8,1.1-1,1.7
      c-0.1,0.7-0.1,1.3,0.1,2c0.3,0.9,1,1.6,1.9,2.1C44.3,405.6,45.5,405.5,47,405z" />
    <path d="M43.5,386.7l0.1-1.5c1.2,0.1,2.2,0.4,2.9,1.1s1.2,1.5,1.4,2.6c0.2,1.1,0.2,2.1-0.2,2.9
      c-0.3,0.8-0.9,1.5-1.7,2s-1.7,0.9-2.7,1.1c-1.1,0.2-2.1,0.2-3-0.1c-0.9-0.3-1.6-0.7-2.2-1.4c-0.6-0.7-1-1.5-1.1-2.4
      c-0.2-1.1-0.1-2,0.3-2.8c0.4-0.8,1.1-1.5,2-1.9l0.6,1.3c-0.7,0.4-1.2,0.9-1.5,1.4c-0.3,0.5-0.3,1.2-0.2,1.9
      c0.2,0.8,0.5,1.4,1,1.9c0.5,0.5,1.1,0.7,1.8,0.8c0.7,0.1,1.4,0.1,2.1-0.1c0.9-0.2,1.7-0.5,2.3-0.8c0.6-0.4,1-0.9,1.3-1.5
      s0.3-1.2,0.1-1.9c-0.2-0.8-0.5-1.4-1.1-1.9C45.1,386.9,44.4,386.7,43.5,386.7z" />
    <path d="M46.8,382.8l-10.7,1l-0.1-1.4l10.7-1L46.8,382.8z" />
    <path d="M46.5,379.1l-10.7-0.1l0-7.8l1.3,0l0,6.3l3.3,0l0-5.9l1.3,0l0,5.9l3.7,0l0-6.6l1.3,0L46.5,379.1z" />
    <path d="M47,366.8l-9.4-1.3l-0.5,3.5l-1.3-0.2l1.1-8.4l1.3,0.2l-0.5,3.5l9.4,1.3L47,366.8z" />
    <path d="M47.5,363l-9.4-6.6l0.4-1.5l11.5-1.6l-0.4,1.6l-3.5,0.4l-1.1,4.4l2.9,1.9L47.5,363z M44,358.9l0.9-3.5
      l-3.2,0.4c-1,0.1-1.7,0.2-2.3,0.2c0.6,0.3,1.2,0.7,1.8,1.1L44,358.9z" />
    <path d="M50.9,351l-8.8-3.4l-1.3,3.3l-1.2-0.5l3-8l1.2,0.5l-1.3,3.3l8.8,3.4L50.9,351z" />
    <path d="M53.2,345.3l-9.4-5.1l3.7-6.8l1.1,0.6l-3,5.6l2.9,1.6l2.8-5.2l1.1,0.6l-2.8,5.2l3.2,1.7l3.1-5.8l1.1,0.6
      L53.2,345.3z" />
    <path d="M57.2,337.8l-6.2-9.7l0.9-1.2l11.3,2.8l-1,1.3l-3.4-0.9l-2.7,3.6l1.9,2.9L57.2,337.8z M55.5,332.7l2.2-2.9
      l-3.1-0.9c-0.9-0.3-1.7-0.5-2.2-0.7c0.5,0.5,0.9,1.1,1.3,1.7L55.5,332.7z" />
    <path d="M65.9,326.8l-7.3-7.8l1.1-1l9.9,2.3l-5.8-6.2l1-0.9L72,321l-1.1,1l-9.9-2.3l5.8,6.2L65.9,326.8z" />
    <path d="M72.7,320.4l-2.8-11.2l1.3-0.9l9.8,6.3l-1.3,0.9l-2.9-1.9l-3.7,2.6l0.9,3.3L72.7,320.4z M72.7,315l3-2.1
      l-2.6-1.8c-0.8-0.5-1.4-1-1.9-1.4c0.3,0.6,0.5,1.3,0.7,2L72.7,315z" />
    <path d="M84.1,313l-4.4-8.4l-3.1,1.6l-0.6-1.1l7.5-3.9l0.6,1.1l-3.2,1.6l4.4,8.4L84.1,313z M85.1,315.2l-0.7-1.3
      l1.3-0.7l0.7,1.3c0.4,0.8,0.3,1.5-0.2,2.2l-0.6-0.3c0.2-0.3,0.3-0.5,0.3-0.8c0-0.2,0-0.4-0.2-0.7L85.1,315.2z" />
    <path d="M89.9,310.3l-4.1-9.9l1.3-0.5l4.1,9.9L89.9,310.3z" />
    <path d="M91.3,303.9c-0.5-1.7-0.4-3.2,0.2-4.4c0.6-1.2,1.7-2.1,3.1-2.5c1-0.3,1.9-0.3,2.8-0.1
      c0.9,0.2,1.7,0.7,2.3,1.4c0.6,0.7,1.1,1.6,1.4,2.6c0.3,1,0.4,2,0.2,3c-0.2,0.9-0.6,1.7-1.3,2.4c-0.7,0.6-1.4,1.1-2.3,1.4
      c-1,0.3-1.9,0.3-2.8,0c-0.9-0.2-1.7-0.7-2.3-1.4C92,305.6,91.6,304.8,91.3,303.9z M92.8,303.5c0.4,1.2,1,2.1,1.9,2.6
      c0.9,0.5,1.8,0.6,2.8,0.3c1-0.3,1.8-0.9,2.2-1.8c0.5-0.9,0.5-2,0.1-3.4c-0.2-0.8-0.6-1.5-1.1-2.1c-0.5-0.5-1-0.9-1.7-1.1
      c-0.6-0.2-1.3-0.2-2,0c-1,0.3-1.7,0.9-2.2,1.7C92.3,300.7,92.3,302,92.8,303.5z" />
    <path d="M104.1,305.8l-1.4-10.6l1.4-0.2l6.7,7.6l-1.1-8.4l1.4-0.2l1.4,10.6l-1.4,0.2l-6.7-7.6l1.1,8.4L104.1,305.8z" />
    <path d="M113.3,304.7l4.3-10.7l1.5,0l4.3,10.8l-1.6,0l-1.2-3.3l-4.5-0.1l-1.2,3.2L113.3,304.7z M116.5,300.3l3.6,0
      l-1.1-3c-0.3-0.9-0.6-1.7-0.7-2.2c-0.1,0.7-0.3,1.4-0.6,2L116.5,300.3z" />
    <path d="M124.1,305l1.5-10.6l1.4,0.2l-1.3,9.4l5.2,0.7l-0.2,1.3L124.1,305z" />
    <path d="M131,305.8l6.8-9.3l1.5,0.4l1.5,11.5l-1.6-0.4l-0.4-3.5l-4.3-1.2l-2,2.8L131,305.8z M135.1,302.4l3.5,0.9
      l-0.3-3.2c-0.1-1-0.2-1.7-0.2-2.3c-0.3,0.6-0.7,1.2-1.1,1.8L135.1,302.4z M140.5,294.6l0.9,0.2c-0.2,0.6-0.6,1-1,1.2
      s-1,0.2-1.6,0.1c-0.6-0.2-1-0.4-1.3-0.9c-0.3-0.4-0.4-0.9-0.3-1.5l0.9,0.2c0,0.3,0,0.6,0.2,0.8s0.4,0.4,0.7,0.4
      c0.4,0.1,0.7,0.1,0.9,0C140.1,295.1,140.3,294.9,140.5,294.6z" />
    <path d="M145.2,310.2l4.8-9.6l3.3,1.6c0.7,0.4,1.3,0.7,1.6,1c0.5,0.4,0.8,0.9,1.1,1.4c0.3,0.7,0.4,1.4,0.3,2.2
      c-0.1,0.8-0.3,1.6-0.8,2.5c-0.4,0.7-0.8,1.3-1.2,1.8c-0.5,0.5-0.9,0.8-1.4,1.1c-0.5,0.2-0.9,0.4-1.3,0.4c-0.4,0.1-0.9,0-1.4-0.1
      s-1-0.3-1.6-0.6L145.2,310.2z M147,309.7l2.1,1c0.6,0.3,1.2,0.5,1.6,0.6c0.4,0.1,0.8,0,1.1-0.1c0.5-0.2,0.9-0.4,1.3-0.9
      s0.8-1,1.2-1.7c0.5-1,0.7-1.9,0.7-2.6c-0.1-0.7-0.3-1.3-0.7-1.7c-0.3-0.3-0.8-0.6-1.5-1l-2-1L147,309.7z" />
    <path d="M154.5,315l6.1-8.8l6.4,4.4l-0.7,1L161,308l-1.9,2.7l4.9,3.4l-0.7,1l-4.9-3.4l-2.1,3l5.4,3.7l-0.7,1
      L154.5,315z" />
    <path d="M173.4,326l0.7,1.3c-1,0.6-2.1,0.8-3,0.7c-1-0.1-1.9-0.6-2.6-1.4c-0.8-0.8-1.3-1.7-1.5-2.5
      c-0.2-0.8-0.1-1.7,0.3-2.6c0.4-0.9,0.9-1.7,1.7-2.4c0.8-0.8,1.7-1.3,2.5-1.6c0.9-0.3,1.8-0.3,2.6,0c0.9,0.3,1.6,0.7,2.3,1.4
      c0.7,0.8,1.2,1.6,1.3,2.5c0.1,0.9-0.1,1.8-0.6,2.7l-1.2-0.8c0.4-0.7,0.5-1.4,0.5-2s-0.4-1.1-0.9-1.7c-0.6-0.6-1.2-0.9-1.9-1.1
      c-0.7-0.1-1.3,0-2,0.3c-0.6,0.3-1.2,0.7-1.7,1.2c-0.7,0.6-1.1,1.3-1.4,2c-0.3,0.7-0.4,1.3-0.2,2c0.1,0.6,0.5,1.2,0.9,1.7
      c0.6,0.6,1.2,0.9,1.9,1C171.9,326.7,172.7,326.5,173.4,326z" />
    <path d="M172.6,330.8l8.7-6.3l2.8,3.9c0.6,0.8,0.9,1.4,1,1.9c0.1,0.5,0.1,1-0.1,1.6c-0.2,0.5-0.6,1-1.1,1.3
      c-0.6,0.4-1.3,0.6-2,0.5c-0.7-0.1-1.4-0.5-2.1-1.3c0.1,0.4,0.1,0.7,0.1,1c-0.1,0.6-0.2,1.2-0.5,1.8l-1.3,3.2l-1-1.5l1-2.5
      c0.3-0.7,0.5-1.3,0.6-1.7c0.1-0.4,0.2-0.8,0.2-1c0-0.3-0.1-0.5-0.1-0.7c-0.1-0.2-0.2-0.4-0.4-0.7l-1-1.3l-3.9,2.8L172.6,330.8z
      M178.3,328.4l1.8,2.5c0.4,0.5,0.7,0.9,1.1,1.1c0.3,0.2,0.7,0.3,1,0.3c0.4,0,0.7-0.1,0.9-0.3c0.4-0.3,0.6-0.7,0.7-1.2
      s-0.2-1.1-0.6-1.7l-2-2.8L178.3,328.4z" />
    <path d="M191.4,340.7l0.7,1.3l-5.5,2.9c-1,0.5-1.8,0.8-2.5,0.9c-0.7,0.1-1.3-0.1-2-0.5c-0.6-0.4-1.2-1-1.7-2
      c-0.5-0.9-0.7-1.7-0.7-2.4s0.2-1.4,0.7-1.9c0.5-0.5,1.2-1.1,2.2-1.6l5.5-2.9l0.7,1.3l-5.5,2.8c-0.8,0.4-1.4,0.8-1.7,1.2
      c-0.3,0.4-0.5,0.8-0.5,1.3c0,0.5,0.1,1,0.4,1.5c0.5,0.9,1,1.5,1.7,1.7c0.6,0.2,1.5,0,2.7-0.7L191.4,340.7z" />
    <path d="M189.3,354.7l0.1,1.5c-1.2,0.1-2.2-0.1-3-0.7c-0.8-0.5-1.4-1.3-1.8-2.4c-0.4-1.1-0.5-2.1-0.2-2.9
      c0.2-0.8,0.7-1.6,1.4-2.2c0.7-0.6,1.6-1.1,2.5-1.5c1.1-0.4,2.1-0.5,3-0.3c0.9,0.1,1.7,0.5,2.4,1.1c0.7,0.6,1.1,1.4,1.5,2.3
      c0.3,1,0.4,2,0.1,2.8c-0.3,0.9-0.8,1.6-1.7,2.2l-0.8-1.2c0.7-0.5,1.1-1,1.3-1.6c0.2-0.6,0.2-1.2-0.1-1.9
      c-0.3-0.8-0.7-1.4-1.2-1.8c-0.6-0.4-1.2-0.6-1.9-0.6c-0.7,0-1.4,0.1-2.1,0.3c-0.9,0.3-1.6,0.7-2.1,1.1c-0.6,0.5-0.9,1-1,1.7
      c-0.1,0.6-0.1,1.3,0.1,1.9c0.3,0.8,0.7,1.3,1.3,1.7C187.6,354.7,188.4,354.8,189.3,354.7z" />
    <path d="M186.5,358.7l10.6-2l1.4,7.6l-1.2,0.2l-1.2-6.2l-3.2,0.6l1.1,5.8l-1.2,0.2l-1.1-5.8l-3.6,0.7l1.2,6.5
      l-1.2,0.2L186.5,358.7z" />
    <path d="M188.5,372.2l10.7,0.1l-0.1,4.8c0,1-0.1,1.7-0.3,2.2c-0.2,0.5-0.5,0.9-1,1.2c-0.5,0.3-1,0.4-1.6,0.4
      c-0.8,0-1.4-0.3-1.9-0.8c-0.5-0.5-0.8-1.3-1-2.3c-0.2,0.4-0.4,0.7-0.5,0.9c-0.4,0.4-0.9,0.8-1.4,1.2l-2.9,1.8l0-1.8l2.2-1.4
      c0.6-0.4,1.1-0.7,1.5-1c0.3-0.3,0.6-0.5,0.7-0.7c0.1-0.2,0.2-0.4,0.3-0.6c0-0.2,0.1-0.4,0.1-0.8l0-1.6l-4.8,0L188.5,372.2z
      M194.5,373.7l0,3.1c0,0.6,0.1,1.2,0.2,1.5c0.1,0.4,0.3,0.6,0.6,0.8c0.3,0.2,0.6,0.3,1,0.3c0.5,0,0.9-0.2,1.3-0.5
      s0.5-0.9,0.5-1.7l0-3.4L194.5,373.7z" />
    <path d="M193.5,383c1.8,0.3,3.1,1,3.9,2.1c0.8,1.1,1.1,2.4,0.9,3.9c-0.2,1-0.5,1.8-1.1,2.5c-0.6,0.7-1.3,1.2-2.3,1.5
      s-1.9,0.3-2.9,0.2c-1.1-0.2-2-0.6-2.8-1.1c-0.8-0.6-1.3-1.3-1.6-2.2c-0.3-0.9-0.4-1.8-0.2-2.7c0.2-1,0.6-1.8,1.2-2.6
      c0.6-0.7,1.4-1.2,2.3-1.5C191.6,382.9,192.5,382.9,193.5,383z M193.2,384.5c-1.3-0.2-2.3,0-3.2,0.5c-0.8,0.6-1.4,1.4-1.5,2.4
      c-0.2,1.1,0.1,2,0.7,2.8c0.6,0.8,1.6,1.3,3,1.5c0.9,0.1,1.6,0.1,2.3-0.1s1.3-0.5,1.7-1s0.7-1.1,0.8-1.8c0.2-1,0-1.9-0.6-2.7
      C195.9,385.3,194.8,384.7,193.2,384.5z" />
    <path d="M183,395.9l1.2,0.4l-0.5,1.5l-0.8-0.3c-0.5-0.2-0.9-0.4-1.2-0.7c-0.3-0.3-0.4-0.7-0.5-1.2l0.7-0.2
      c0,0.5,0.3,0.9,0.8,1.1L183,395.9z M189.6,394.3l-0.3,1.3c-0.5-0.1-1-0.1-1.4,0c-0.4,0.1-0.8,0.4-1.1,0.8
      c-0.4,0.4-0.6,0.9-0.8,1.5c-0.2,0.5-0.2,1-0.2,1.4c0,0.4,0.1,0.8,0.3,1.1c0.2,0.3,0.5,0.5,0.8,0.6c0.3,0.1,0.6,0.1,0.9,0
      c0.3-0.1,0.6-0.4,0.9-0.7c0.2-0.2,0.6-0.8,1.1-1.7c0.5-0.9,0.9-1.5,1.3-1.8c0.4-0.4,0.8-0.7,1.3-0.8c0.5-0.1,0.9-0.1,1.4,0
      c0.5,0.2,1,0.5,1.3,0.9c0.4,0.4,0.6,1,0.6,1.6c0.1,0.6,0,1.3-0.3,2c-0.2,0.8-0.6,1.4-1,1.9c-0.4,0.5-0.9,0.8-1.5,1
      s-1.2,0.2-1.8,0l0.3-1.3c0.7,0.1,1.2,0.1,1.7-0.2c0.5-0.3,0.8-0.8,1.1-1.6c0.3-0.8,0.3-1.5,0.1-1.9c-0.2-0.5-0.5-0.8-0.9-0.9
      c-0.4-0.1-0.7-0.1-1,0.1c-0.3,0.2-0.8,0.8-1.4,1.8c-0.6,1-1.1,1.7-1.4,2.1c-0.5,0.5-1,0.8-1.5,1c-0.5,0.1-1,0.1-1.6,0
      c-0.5-0.2-1-0.5-1.4-1c-0.4-0.5-0.6-1-0.7-1.7c-0.1-0.7,0-1.4,0.2-2.1c0.3-0.9,0.7-1.7,1.1-2.2c0.5-0.5,1-0.9,1.7-1.1
      C188.3,394.1,189,394.1,189.6,394.3z" />
    <path d="M182.9,403.1l9.9,4.2l-0.6,1.3l-9.9-4.2L182.9,403.1z" />
    <path d="M181.5,406.6l9.4,5.2l-3.7,6.8l-1.1-0.6l3.1-5.6l-2.9-1.6l-2.9,5.2l-1.1-0.6l2.9-5.2l-3.2-1.8l-3.2,5.8
      l-1.1-0.6L181.5,406.6z" />
  </g>
  <path stroke="red" stroke-width="5" opacity=".618" d="M 99 192
    C 137 160 204 133 141 124
    C 78 115 34 167 47 129
    C 60 91 20 65 77 71
    C 134 77 206 43 196 101
    C 186 159 118 368 119 299
    C 120 230 201 169 138 206
    C 75 243 53 231 99 192" />
</svg>
